<svg width="48" height="48" viewBox="0 0 48 48" fill="none" xmlns="http://www.w3.org/2000/svg">
<rect x="0.25" y="0.25" width="47.5" height="47.5" rx="3.75" fill="white"/>
<rect x="0.25" y="0.25" width="47.5" height="47.5" rx="3.75" stroke="#ADADAD" stroke-width="0.5"/>
<path d="M19.0005 33C18.4505 33 17.9797 32.8042 17.588 32.4125C17.1963 32.0208 17.0005 31.55 17.0005 31V18C10.1901 18 34.9124 18 31.0005 18V31C31.0005 31.55 30.8047 32.0208 30.413 32.4125C30.0213 32.8042 29.5505 33 29.0005 33H19.0005ZM29.0005 18H19.0005V31H29.0005V18ZM22.0005 29C22.2838 29 22.5213 28.9042 22.713 28.7125C22.9047 28.5208 23.0005 28.2833 23.0005 28V21C23.0005 20.7167 22.9047 20.4792 22.713 20.2875C22.5213 20.0958 22.2838 20 22.0005 20C21.7172 20 21.4797 20.0958 21.288 20.2875C21.0963 20.4792 21.0005 20.7167 21.0005 21V28C21.0005 28.2833 21.0963 28.5208 21.288 28.7125C21.4797 28.9042 21.7172 29 22.0005 29ZM26.0005 29C26.2838 29 26.5213 28.9042 26.713 28.7125C26.9047 28.5208 27.0005 28.2833 27.0005 28V21C27.0005 20.7167 26.9047 20.4792 26.713 20.2875C26.5213 20.0958 26.2838 20 26.0005 20C25.7172 20 25.4797 20.0958 25.288 20.2875C25.0963 20.4792 25.0005 20.7167 25.0005 21V28C25.0005 28.2833 25.0963 28.5208 25.288 28.7125C25.4797 28.9042 25.7172 29 26.0005 29Z" fill="#F15454"/>
<path d="M17 18C16.6667 18 16 17.8 16 17C16 16.2 16.6667 16 17 16H21C21 15.6667 21.2 15 22 15H26C26.3333 15 27 15.2 27 16H31C31.3333 16 32 16.2 32 17C32 17.8 31.3333 18 31 18H17Z" fill="#F15454" stroke="#F15454" stroke-width="0.1"/>
</svg>
