<svg width="48" height="48" viewBox="0 0 48 48" fill="none" xmlns="http://www.w3.org/2000/svg">
<rect x="0.25" y="0.25" width="47.5" height="47.5" rx="3.75" fill="white"/>
<rect x="0.25" y="0.25" width="47.5" height="47.5" rx="3.75" stroke="#ADADAD" stroke-width="0.5"/>
<path d="M17 31H18.425L28.2 21.225L26.775 19.8L17 29.575V31ZM16 33C15.7167 33 15.4792 32.9042 15.2875 32.7125C15.0958 32.5208 15 32.2833 15 32V29.575C15 29.3083 15.05 29.0542 15.15 28.8125C15.25 28.5708 15.3917 28.3583 15.575 28.175L28.2 15.575C28.4 15.3917 28.6208 15.25 28.8625 15.15C29.1042 15.05 29.3583 15 29.625 15C29.8917 15 30.15 15.05 30.4 15.15C30.65 15.25 30.8667 15.4 31.05 15.6L32.425 17C32.625 17.1833 32.7708 17.4 32.8625 17.65C32.9542 17.9 33 18.15 33 18.4C33 18.6667 32.9542 18.9208 32.8625 19.1625C32.7708 19.4042 32.625 19.625 32.425 19.825L19.825 32.425C19.6417 32.6083 19.4292 32.75 19.1875 32.85C18.9458 32.95 18.6917 33 18.425 33H16ZM27.475 20.525L26.775 19.8L28.2 21.225L27.475 20.525Z" fill="#777777"/>
</svg>
