<svg width="54" height="54" viewBox="0 0 54 54" fill="none" xmlns="http://www.w3.org/2000/svg">
<circle cx="27" cy="27" r="27" fill="#E2E2E2"/>
<path d="M33.5 36.668C34.5222 36.668 35.3889 36.318 36.1 35.618C36.8111 34.918 37.1667 34.0457 37.1667 33.0013C37.1667 31.9791 36.8111 31.1124 36.1 30.4013C35.3889 29.6902 34.5222 29.3346 33.5 29.3346C32.4556 29.3346 31.5833 29.6902 30.8833 30.4013C30.1833 31.1124 29.8333 31.9791 29.8333 33.0013C29.8333 34.0457 30.1833 34.918 30.8833 35.618C31.5833 36.318 32.4556 36.668 33.5 36.668ZM40.3 41.2013L36.7333 37.668C36.2667 37.9791 35.7611 38.2235 35.2167 38.4013C34.6722 38.5791 34.1 38.668 33.5 38.668C31.9222 38.668 30.5833 38.118 29.4833 37.018C28.3833 35.918 27.8333 34.5791 27.8333 33.0013C27.8333 31.4457 28.3833 30.1124 29.4833 29.0013C30.5833 27.8902 31.9222 27.3346 33.5 27.3346C35.0556 27.3346 36.3889 27.8902 37.5 29.0013C38.6111 30.1124 39.1667 31.4457 39.1667 33.0013C39.1667 33.6235 39.0722 34.2069 38.8833 34.7513C38.6944 35.2957 38.4444 35.8013 38.1333 36.268L41.6667 39.8013L40.3 41.2013ZM17.5 40.3346C16.9667 40.3346 16.5 40.1346 16.1 39.7346C15.7 39.3346 15.5 38.868 15.5 38.3346V15.668C15.5 15.1346 15.7 14.668 16.1 14.268C16.5 13.868 16.9667 13.668 17.5 13.668H29.5333L36.8333 20.968V26.1013C36.3 25.8569 35.7556 25.668 35.2 25.5346C34.6444 25.4013 34.0778 25.3346 33.5 25.3346C32.5667 25.3346 31.6944 25.4791 30.8833 25.768C30.0722 26.0569 29.3444 26.468 28.7 27.0013H20.8V29.0013H26.9667C26.6333 29.5346 26.3722 30.1124 26.1833 30.7346C25.9944 31.3569 25.8778 32.0013 25.8333 32.668H20.8V34.668H26C26.3111 36.0013 26.9278 37.1791 27.85 38.2013C28.7722 39.2235 29.9 39.9346 31.2333 40.3346H17.5ZM28.5333 21.868H34.8333L28.5333 15.668V21.868Z" fill="white"/>
<g clip-path="url(#clip0_715_9229)">
<path d="M34.978 34.4761L35.1548 34.6528C34.9912 34.8164 34.7261 34.8164 34.5625 34.6528L33.7225 33.8128C33.6249 33.7152 33.4666 33.7152 33.369 33.8128L32.529 34.6528C32.3654 34.8164 32.1003 34.8164 31.9367 34.6528C31.7732 34.4893 31.7732 34.2241 31.9367 34.0606M34.978 34.4761L31.9367 34.0606M34.978 34.4761L35.1548 34.6528C35.3183 34.4893 35.3183 34.2241 35.1548 34.0606L34.3148 33.2206C34.2172 33.1229 34.2172 32.9647 34.3148 32.867L35.1548 32.027C35.3183 31.8635 35.3183 31.5983 35.1548 31.4348C34.9912 31.2712 34.7261 31.2712 34.5625 31.4348L33.7225 32.2748C33.6249 32.3724 33.4666 32.3724 33.369 32.2748L32.529 31.4348C32.3654 31.2712 32.1003 31.2712 31.9367 31.4348C31.7732 31.5983 31.7732 31.8635 31.9367 32.027L32.7767 32.867C32.8743 32.9647 32.8743 33.1229 32.7767 33.2206L31.9367 34.0606M34.978 34.4761L31.9367 34.0606" fill="white" stroke="white" stroke-width="0.5"/>
</g>
<defs>
<clipPath id="clip0_715_9229">
<rect width="5.45622" height="5.45622" fill="white" transform="translate(30.8184 30.3164)"/>
</clipPath>
</defs>
</svg>
