<svg width="32" height="32" viewBox="0 0 32 32" fill="none" xmlns="http://www.w3.org/2000/svg">
<path fill-rule="evenodd" clip-rule="evenodd" d="M19.0552 10.4269C18.1507 9.82257 17.0873 9.5 15.9995 9.5C14.5409 9.5 13.1419 10.0795 12.1105 11.1109C11.079 12.1424 10.4995 13.5413 10.4995 15C10.4995 16.0878 10.8221 17.1512 11.4265 18.0556C12.0308 18.9601 12.8898 19.6651 13.8948 20.0813C14.8998 20.4976 16.0056 20.6065 17.0725 20.3943C18.1394 20.1821 19.1194 19.6583 19.8886 18.8891C20.6578 18.1199 21.1816 17.1399 21.3939 16.073C21.6061 15.0061 21.4972 13.9002 21.0809 12.8952C20.6646 11.8902 19.9597 11.0313 19.0552 10.4269ZM27.6258 21.804C28.8584 19.3413 29.2764 16.5507 28.8195 13.835C28.799 13.7045 28.7527 13.5794 28.6835 13.4669C28.6143 13.3544 28.5235 13.2567 28.4163 13.1795C28.3091 13.1023 28.1877 13.047 28.059 13.017C27.9304 12.987 27.797 12.9828 27.6668 13.0046C27.5365 13.0264 27.4118 13.0738 27.2999 13.144C27.188 13.2143 27.0912 13.306 27.015 13.4139C26.9388 13.5218 26.8847 13.6437 26.8559 13.7726C26.827 13.9016 26.824 14.0349 26.847 14.165C26.9486 14.7714 26.9996 15.3852 26.9995 16C27.0009 18.6932 26.0098 21.2925 24.2158 23.3013C23.4873 22.2467 22.5625 21.3423 21.492 20.6375C21.4007 20.577 21.2921 20.5481 21.1828 20.5553C21.0735 20.5626 20.9696 20.6055 20.887 20.6775C19.5284 21.8531 17.7918 22.5001 15.9952 22.5001C14.1985 22.5001 12.462 21.8531 11.1033 20.6775C11.0209 20.6058 10.9172 20.563 10.8082 20.5558C10.6991 20.5486 10.5907 20.5773 10.4995 20.6375C9.43009 21.3423 8.50657 22.2468 7.77954 23.3013C5.98686 21.292 4.99717 18.6927 4.99954 16C5.00081 14.4005 5.35061 12.8205 6.02459 11.3699C6.69858 9.91937 7.68056 8.63309 8.90219 7.60062C10.1238 6.56816 11.5558 5.8143 13.0984 5.39151C14.641 4.96872 16.2572 4.88716 17.8345 5.1525C18.0949 5.19359 18.361 5.13019 18.5749 4.97611C18.7888 4.82203 18.9332 4.58972 18.9767 4.32973C19.0202 4.06973 18.9593 3.80307 18.8072 3.58776C18.6551 3.37245 18.4241 3.22591 18.1645 3.18C15.4488 2.72314 12.6582 3.14117 10.1956 4.37372C7.73295 5.60627 5.72575 7.58956 4.46377 10.0372C3.2018 12.4849 2.75036 15.2703 3.17464 17.9913C3.59892 20.7123 4.87696 23.228 6.82423 25.1753C8.7715 27.1226 11.2872 28.4006 14.0082 28.8249C16.7292 29.2492 19.5146 28.7977 21.9623 27.5358C24.41 26.2738 26.3933 24.2666 27.6258 21.804Z" fill="#4364D0"/>
<path fill-rule="evenodd" clip-rule="evenodd" d="M28.5322 7.88375L27.9497 7.5475C28.018 7.1857 28.018 6.8143 27.9497 6.4525L28.5322 6.11625C28.762 5.98364 28.9296 5.7652 28.9983 5.50898C29.067 5.25276 29.0311 4.97974 28.8985 4.75C28.7659 4.52026 28.5474 4.3526 28.2912 4.28392C28.035 4.21523 27.762 4.25114 27.5322 4.38375L26.9485 4.72125C26.6691 4.48157 26.3479 4.29554 26.001 4.1725V3.5C26.001 3.23478 25.8956 2.98043 25.7081 2.79289C25.5205 2.60536 25.2662 2.5 25.001 2.5C24.7357 2.5 24.4814 2.60536 24.2939 2.79289C24.1063 2.98043 24.001 3.23478 24.001 3.5V4.1725C23.654 4.29554 23.3328 4.48157 23.0535 4.72125L22.4697 4.38375C22.356 4.31809 22.2304 4.27548 22.1001 4.25835C21.9699 4.24122 21.8376 4.24991 21.7107 4.28392C21.5839 4.31792 21.4649 4.37659 21.3607 4.45656C21.2565 4.53653 21.1691 4.63624 21.1035 4.75C21.0378 4.86376 20.9952 4.98933 20.9781 5.11956C20.9609 5.24979 20.9696 5.38211 21.0036 5.50898C21.0376 5.63585 21.0963 5.75477 21.1763 5.85897C21.2562 5.96316 21.356 6.05059 21.4697 6.11625L22.0522 6.4525C21.9839 6.8143 21.9839 7.1857 22.0522 7.5475L21.4697 7.88375C21.279 7.99377 21.1299 8.16367 21.0455 8.36709C20.9612 8.57052 20.9464 8.79609 21.0034 9.00879C21.0604 9.22149 21.186 9.40944 21.3607 9.54346C21.5354 9.67748 21.7495 9.75009 21.9697 9.75C22.1453 9.75054 22.3179 9.70438 22.4697 9.61625L23.0535 9.27875C23.3328 9.51843 23.654 9.70446 24.001 9.8275V10.5C24.001 10.7652 24.1063 11.0196 24.2939 11.2071C24.4814 11.3946 24.7357 11.5 25.001 11.5C25.2662 11.5 25.5205 11.3946 25.7081 11.2071C25.8956 11.0196 26.001 10.7652 26.001 10.5V9.8275C26.3479 9.70446 26.6691 9.51843 26.9485 9.27875L27.5322 9.61625C27.6841 9.70438 27.8566 9.75054 28.0322 9.75C28.2524 9.75009 28.4665 9.67748 28.6412 9.54346C28.8159 9.40944 28.9415 9.22149 28.9985 9.00879C29.0555 8.79609 29.0407 8.57052 28.9564 8.36709C28.8721 8.16367 28.723 7.99377 28.5322 7.88375ZM24.4454 7.83147C24.6098 7.94135 24.8032 8 25.001 8C25.2662 8 25.5205 7.89464 25.7081 7.70711C25.8956 7.51957 26.001 7.26522 26.001 7C26.001 6.80222 25.9423 6.60888 25.8324 6.44443C25.7225 6.27998 25.5664 6.15181 25.3836 6.07612C25.2009 6.00043 24.9998 5.98063 24.8059 6.01921C24.6119 6.0578 24.4337 6.15304 24.2939 6.29289C24.154 6.43275 24.0588 6.61093 24.0202 6.80491C23.9816 6.99889 24.0014 7.19996 24.0771 7.38268C24.1528 7.56541 24.2809 7.72159 24.4454 7.83147Z" fill="#6F6F6F"/>
</svg>
